<svg xmlns="http://www.w3.org/2000/svg" xmlns:xlink="http://www.w3.org/1999/xlink" width="1920" zoomAndPan="magnify" viewBox="0 0 1440 809.999993" height="1080" preserveAspectRatio="xMidYMid meet" version="1.0"><metadata><ContainsAiGeneratedContent>Yes</ContainsAiGeneratedContent></metadata><defs><g/></defs><rect x="-144" width="1728" fill="#ffffff" y="-80.999999" height="971.999992" fill-opacity="1"/><rect x="-144" width="1728" fill="#151416" y="-80.999999" height="971.999992" fill-opacity="1"/><g fill="#ffffff" fill-opacity="1"><g transform="translate(217.827176, 484.176058)"><g><path d="M 57.53125 -125.109375 L 57.53125 -98.859375 L 108.90625 -98.859375 L 108.90625 -64.84375 L 57.53125 -64.84375 L 57.53125 -35.84375 L 115.75 -35.84375 L 115.75 0 L 12.78125 0 L 12.78125 -160.953125 L 115.75 -160.953125 L 115.75 -125.109375 Z M 57.53125 -125.109375 "/></g></g></g><g fill="#ffffff" fill-opacity="1"><g transform="translate(324.672783, 484.176058)"><g><path d="M 180.140625 -129.21875 C 196.273438 -129.21875 208.945312 -124.347656 218.15625 -114.609375 C 227.363281 -104.867188 231.96875 -91.550781 231.96875 -74.65625 L 231.96875 0 L 187.21875 0 L 187.21875 -68.71875 C 187.21875 -75.570312 185.3125 -80.898438 181.5 -84.703125 C 177.695312 -88.503906 172.523438 -90.40625 165.984375 -90.40625 C 159.441406 -90.40625 154.265625 -88.503906 150.453125 -84.703125 C 146.648438 -80.898438 144.75 -75.570312 144.75 -68.71875 L 144.75 0 L 100 0 L 100 -68.71875 C 100 -75.570312 98.132812 -80.898438 94.40625 -84.703125 C 90.675781 -88.503906 85.539062 -90.40625 79 -90.40625 C 72.300781 -90.40625 67.046875 -88.503906 63.234375 -84.703125 C 59.429688 -80.898438 57.53125 -75.570312 57.53125 -68.71875 L 57.53125 0 L 12.78125 0 L 12.78125 -128.078125 L 57.53125 -128.078125 L 57.53125 -111.1875 C 61.488281 -116.664062 66.625 -121.039062 72.9375 -124.3125 C 79.257812 -127.582031 86.53125 -129.21875 94.75 -129.21875 C 104.1875 -129.21875 112.59375 -127.160156 119.96875 -123.046875 C 127.351562 -118.941406 133.175781 -113.160156 137.4375 -105.703125 C 142.007812 -112.710938 148.023438 -118.382812 155.484375 -122.71875 C 162.941406 -127.050781 171.160156 -129.21875 180.140625 -129.21875 Z M 180.140625 -129.21875 "/></g></g></g><g fill="#ffffff" fill-opacity="1"><g transform="translate(550.009173, 484.176058)"><g><path d="M 57.53125 -110.28125 C 61.03125 -116.207031 65.976562 -120.921875 72.375 -124.421875 C 78.769531 -127.929688 86.304688 -129.6875 94.984375 -129.6875 C 105.179688 -129.6875 114.425781 -127.019531 122.71875 -121.6875 C 131.007812 -116.363281 137.550781 -108.753906 142.34375 -98.859375 C 147.144531 -88.960938 149.546875 -77.394531 149.546875 -64.15625 C 149.546875 -50.914062 147.144531 -39.3125 142.34375 -29.34375 C 137.550781 -19.375 131.007812 -11.722656 122.71875 -6.390625 C 114.425781 -1.066406 105.179688 1.59375 94.984375 1.59375 C 86.304688 1.59375 78.804688 -0.15625 72.484375 -3.65625 C 66.171875 -7.15625 61.1875 -11.875 57.53125 -17.8125 L 57.53125 61.1875 L 12.78125 61.1875 L 12.78125 -128.078125 L 57.53125 -128.078125 Z M 104.109375 -64.15625 C 104.109375 -72.53125 101.863281 -79.035156 97.375 -83.671875 C 92.882812 -88.316406 87.367188 -90.640625 80.828125 -90.640625 C 74.273438 -90.640625 68.753906 -88.28125 64.265625 -83.5625 C 59.773438 -78.84375 57.53125 -72.375 57.53125 -64.15625 C 57.53125 -55.78125 59.773438 -49.234375 64.265625 -44.515625 C 68.753906 -39.796875 74.273438 -37.4375 80.828125 -37.4375 C 87.367188 -37.4375 92.882812 -39.832031 97.375 -44.625 C 101.863281 -49.425781 104.109375 -55.9375 104.109375 -64.15625 Z M 104.109375 -64.15625 "/></g></g></g><g fill="#ffffff" fill-opacity="1"><g transform="translate(686.991159, 484.176058)"><g><path d="M 72.375 1.59375 C 59.59375 1.59375 48.140625 -1.066406 38.015625 -6.390625 C 27.890625 -11.722656 19.9375 -19.332031 14.15625 -29.21875 C 8.375 -39.113281 5.484375 -50.757812 5.484375 -64.15625 C 5.484375 -77.394531 8.410156 -88.960938 14.265625 -98.859375 C 20.128906 -108.753906 28.117188 -116.363281 38.234375 -121.6875 C 48.359375 -127.019531 59.816406 -129.6875 72.609375 -129.6875 C 85.390625 -129.6875 96.835938 -127.019531 106.953125 -121.6875 C 117.078125 -116.363281 125.070312 -108.753906 130.9375 -98.859375 C 136.800781 -88.960938 139.734375 -77.394531 139.734375 -64.15625 C 139.734375 -50.914062 136.800781 -39.3125 130.9375 -29.34375 C 125.070312 -19.375 117.039062 -11.722656 106.84375 -6.390625 C 96.644531 -1.066406 85.15625 1.59375 72.375 1.59375 Z M 72.375 -37.21875 C 78.613281 -37.21875 83.828125 -39.535156 88.015625 -44.171875 C 92.203125 -48.816406 94.296875 -55.476562 94.296875 -64.15625 C 94.296875 -72.832031 92.203125 -79.453125 88.015625 -84.015625 C 83.828125 -88.585938 78.691406 -90.875 72.609375 -90.875 C 66.515625 -90.875 61.410156 -88.585938 57.296875 -84.015625 C 53.191406 -79.453125 51.140625 -72.832031 51.140625 -64.15625 C 51.140625 -55.320312 53.117188 -48.625 57.078125 -44.0625 C 61.035156 -39.5 66.132812 -37.21875 72.375 -37.21875 Z M 72.375 -37.21875 "/></g></g></g><g fill="#ffffff" fill-opacity="1"><g transform="translate(813.927689, 484.176058)"><g><path d="M 202.0625 -128.078125 L 169.40625 0 L 119.171875 0 L 101.375 -77.625 L 82.875 0 L 32.875 0 L 0.453125 -128.078125 L 44.984375 -128.078125 L 59.359375 -43.15625 L 78.3125 -128.078125 L 126.25 -128.078125 L 145.890625 -42.921875 L 160.046875 -128.078125 Z M 202.0625 -128.078125 "/></g></g></g><g fill="#ffffff" fill-opacity="1"><g transform="translate(997.71241, 484.176058)"><g><path d="M 135.15625 -65.53125 C 135.15625 -62.03125 134.925781 -58.523438 134.46875 -55.015625 L 49.765625 -55.015625 C 50.222656 -48.015625 52.164062 -42.800781 55.59375 -39.375 C 59.019531 -35.957031 63.394531 -34.25 68.71875 -34.25 C 76.175781 -34.25 81.503906 -37.597656 84.703125 -44.296875 L 132.421875 -44.296875 C 130.441406 -35.460938 126.597656 -27.582031 120.890625 -20.65625 C 115.179688 -13.738281 107.988281 -8.300781 99.3125 -4.34375 C 90.632812 -0.382812 81.046875 1.59375 70.546875 1.59375 C 57.910156 1.59375 46.679688 -1.066406 36.859375 -6.390625 C 27.046875 -11.722656 19.363281 -19.332031 13.8125 -29.21875 C 8.257812 -39.113281 5.484375 -50.757812 5.484375 -64.15625 C 5.484375 -77.550781 8.222656 -89.15625 13.703125 -98.96875 C 19.179688 -108.789062 26.828125 -116.363281 36.640625 -121.6875 C 46.460938 -127.019531 57.765625 -129.6875 70.546875 -129.6875 C 83.179688 -129.6875 94.367188 -127.097656 104.109375 -121.921875 C 113.847656 -116.742188 121.457031 -109.320312 126.9375 -99.65625 C 132.414062 -89.988281 135.15625 -78.613281 135.15625 -65.53125 Z M 89.5 -76.71875 C 89.5 -82.195312 87.671875 -86.492188 84.015625 -89.609375 C 80.367188 -92.734375 75.800781 -94.296875 70.3125 -94.296875 C 64.832031 -94.296875 60.34375 -92.8125 56.84375 -89.84375 C 53.34375 -86.875 51.0625 -82.5 50 -76.71875 Z M 89.5 -76.71875 "/></g></g></g><g fill="#ffffff" fill-opacity="1"><g transform="translate(1120.082819, 484.176058)"><g><path d="M 57.53125 -105.484375 C 62.550781 -112.785156 68.640625 -118.566406 75.796875 -122.828125 C 82.953125 -127.085938 90.640625 -129.21875 98.859375 -129.21875 L 98.859375 -81.5 L 86.296875 -81.5 C 76.554688 -81.5 69.328125 -79.597656 64.609375 -75.796875 C 59.890625 -71.992188 57.53125 -65.375 57.53125 -55.9375 L 57.53125 0 L 12.78125 0 L 12.78125 -128.078125 L 57.53125 -128.078125 Z M 57.53125 -105.484375 "/></g></g></g><path fill="#f24528" d="M 1608.71875 813.054688 C 1644.207031 813.054688 1677.503906 813.054688 1710.800781 813.054688 C 1763.058594 813.054688 1815.320312 813.203125 1867.578125 813.015625 C 1879.980469 812.972656 1890.964844 815.917969 1898.929688 825.722656 C 1899.824219 826.746094 1900.644531 827.824219 1901.390625 828.960938 C 1902.136719 830.097656 1902.800781 831.28125 1903.382812 832.507812 C 1903.964844 833.734375 1904.457031 835 1904.863281 836.292969 C 1905.269531 837.589844 1905.585938 838.910156 1905.808594 840.25 C 1906.035156 841.589844 1906.164062 842.941406 1906.203125 844.296875 C 1906.238281 845.65625 1906.183594 847.011719 1906.03125 848.363281 C 1905.882812 849.710938 1905.636719 851.046875 1905.300781 852.363281 C 1904.964844 853.679688 1904.542969 854.964844 1904.027344 856.222656 C 1903.507812 857.660156 1902.894531 859.050781 1902.1875 860.402344 C 1901.476562 861.75 1900.679688 863.046875 1899.792969 864.289062 C 1898.910156 865.53125 1897.941406 866.707031 1896.894531 867.816406 C 1895.851562 868.925781 1894.734375 869.957031 1893.546875 870.914062 C 1892.359375 871.871094 1891.113281 872.742188 1889.804688 873.53125 C 1888.5 874.316406 1887.144531 875.011719 1885.742188 875.613281 C 1884.34375 876.214844 1882.90625 876.71875 1881.4375 877.125 C 1879.964844 877.53125 1878.476562 877.835938 1876.964844 878.035156 C 1872.039062 878.675781 1867.097656 878.886719 1862.136719 878.667969 C 1662.109375 878.742188 1462.085938 878.789062 1262.054688 878.8125 C 1258.484375 878.8125 1254.914062 878.503906 1249.746094 878.273438 C 1251.074219 875.875 1252.585938 873.601562 1254.285156 871.449219 C 1314.152344 809.660156 1374.03125 747.878906 1433.925781 686.117188 C 1443.773438 675.933594 1454.625 669.117188 1469.417969 669.707031 C 1476.246094 669.980469 1479.0625 672.492188 1478.941406 679.441406 C 1478.667969 695.203125 1479.683594 711.042969 1478.429688 726.707031 C 1477.957031 732.644531 1473.707031 739.144531 1469.429688 743.761719 C 1448.679688 766.226562 1427.339844 788.144531 1404.414062 812.128906 L 1544.109375 812.128906 C 1544.109375 806.277344 1544.109375 800.191406 1544.109375 794.105469 C 1544.070312 651.742188 1544.058594 509.378906 1544.078125 367.019531 C 1543.804688 359.808594 1544.550781 352.707031 1546.304688 345.710938 C 1550.949219 330.105469 1564.515625 321.9375 1580.6875 323.703125 C 1581.585938 323.800781 1582.476562 323.933594 1583.359375 324.109375 C 1584.246094 324.285156 1585.121094 324.496094 1585.988281 324.746094 C 1586.851562 325 1587.707031 325.285156 1588.546875 325.613281 C 1589.390625 325.9375 1590.214844 326.296875 1591.023438 326.695312 C 1591.835938 327.09375 1592.625 327.523438 1593.398438 327.988281 C 1594.167969 328.453125 1594.921875 328.953125 1595.648438 329.484375 C 1596.378906 330.015625 1597.082031 330.578125 1597.761719 331.167969 C 1598.441406 331.761719 1599.09375 332.382812 1599.722656 333.03125 C 1600.347656 333.679688 1600.945312 334.355469 1601.511719 335.058594 C 1602.078125 335.757812 1602.613281 336.484375 1603.117188 337.230469 C 1603.621094 337.980469 1604.09375 338.746094 1604.53125 339.535156 C 1604.96875 340.324219 1605.371094 341.128906 1605.738281 341.953125 C 1606.105469 342.777344 1606.433594 343.617188 1606.730469 344.46875 C 1607.023438 345.320312 1607.28125 346.183594 1607.5 347.058594 C 1607.71875 347.933594 1607.898438 348.816406 1608.042969 349.707031 C 1608.183594 350.597656 1608.289062 351.492188 1608.351562 352.394531 C 1608.71875 357.335938 1608.824219 362.289062 1608.675781 367.246094 C 1608.703125 510.058594 1608.714844 652.871094 1608.71875 795.679688 Z M 1608.71875 813.054688 " fill-opacity="1" fill-rule="nonzero"/><path fill="#950500" d="M 1480.644531 360.507812 C 1482.390625 375.148438 1474.425781 387.816406 1462.746094 399.710938 C 1347.390625 516.921875 1232.191406 634.273438 1117.148438 751.773438 C 1088.761719 780.726562 1060.625 809.925781 1032.296875 838.933594 C 1022.367188 849.101562 1010.542969 853.339844 996.636719 848.550781 C 995.179688 848.09375 993.765625 847.535156 992.386719 846.875 C 991.011719 846.214844 989.6875 845.460938 988.414062 844.617188 C 987.144531 843.769531 985.941406 842.835938 984.800781 841.820312 C 983.664062 840.800781 982.601562 839.707031 981.621094 838.539062 C 980.636719 837.371094 979.738281 836.140625 978.929688 834.847656 C 978.121094 833.550781 977.410156 832.207031 976.789062 830.808594 C 976.171875 829.414062 975.65625 827.980469 975.242188 826.511719 C 974.828125 825.039062 974.515625 823.550781 974.3125 822.035156 C 971.882812 808.367188 979.828125 798.84375 988.375 789.984375 C 1020.285156 756.921875 1052.296875 723.953125 1084.398438 691.074219 C 1199.5 573.015625 1314.585938 454.925781 1429.652344 336.808594 C 1439.636719 326.535156 1450.042969 320.023438 1464.222656 325.542969 C 1478.886719 331.242188 1481.160156 344.085938 1480.644531 360.507812 Z M 1480.644531 360.507812 " fill-opacity="1" fill-rule="nonzero"/><path fill="#ffffff" d="M 1478.882812 530.21875 C 1484.945312 550.117188 1472.710938 565.53125 1457.390625 581.105469 C 1341.445312 698.949219 1225.761719 817.046875 1110.335938 935.394531 C 1096.742188 949.273438 1083.027344 952.59375 1068.996094 946.03125 C 1056.59375 940.230469 1047.988281 927.84375 1051.214844 914.308594 C 1052.589844 909.171875 1054.585938 904.292969 1057.203125 899.664062 C 1059.820312 895.035156 1062.972656 890.808594 1066.664062 886.984375 C 1113.980469 837.507812 1161.96875 788.671875 1209.847656 739.734375 C 1284.828125 663.109375 1359.683594 586.363281 1435.226562 510.292969 C 1443.269531 502.195312 1455.046875 497.101562 1465.957031 492.796875 C 1473.6875 489.742188 1479.835938 493.417969 1479.003906 503.78125 C 1478.390625 511.386719 1478.882812 519.085938 1478.882812 530.21875 Z M 1478.882812 530.21875 " fill-opacity="1" fill-rule="nonzero"/><path fill="#f24528" d="M -169.804688 146.582031 C -134.316406 146.582031 -101.019531 146.582031 -67.722656 146.582031 C -15.464844 146.582031 36.796875 146.730469 89.054688 146.542969 C 101.457031 146.5 112.441406 149.445312 120.40625 159.25 C 121.300781 160.273438 122.121094 161.351562 122.867188 162.488281 C 123.613281 163.625 124.277344 164.804688 124.859375 166.035156 C 125.441406 167.261719 125.933594 168.523438 126.339844 169.820312 C 126.75 171.117188 127.0625 172.4375 127.289062 173.777344 C 127.511719 175.117188 127.640625 176.464844 127.679688 177.824219 C 127.714844 179.183594 127.660156 180.539062 127.507812 181.886719 C 127.359375 183.238281 127.113281 184.570312 126.777344 185.890625 C 126.445312 187.207031 126.019531 188.492188 125.503906 189.75 C 124.984375 191.183594 124.371094 192.578125 123.664062 193.925781 C 122.953125 195.277344 122.15625 196.574219 121.269531 197.816406 C 120.386719 199.054688 119.417969 200.230469 118.375 201.339844 C 117.328125 202.449219 116.210938 203.484375 115.023438 204.441406 C 113.835938 205.398438 112.589844 206.269531 111.28125 207.058594 C 109.976562 207.84375 108.621094 208.539062 107.21875 209.140625 C 105.820312 209.742188 104.382812 210.246094 102.914062 210.652344 C 101.441406 211.058594 99.953125 211.363281 98.441406 211.5625 C 93.515625 212.203125 88.574219 212.414062 83.613281 212.195312 C -116.410156 212.269531 -316.4375 212.316406 -516.464844 212.339844 C -520.039062 212.339844 -523.609375 212.03125 -528.777344 211.796875 C -527.449219 209.402344 -525.9375 207.128906 -524.238281 204.976562 C -464.371094 143.183594 -404.492188 81.40625 -344.597656 19.644531 C -334.75 9.457031 -323.898438 2.640625 -309.105469 3.234375 C -302.277344 3.503906 -299.457031 6.015625 -299.582031 12.96875 C -299.855469 28.730469 -298.839844 44.566406 -300.089844 60.234375 C -300.566406 66.171875 -304.816406 72.671875 -309.09375 77.289062 C -329.84375 99.753906 -351.183594 121.671875 -374.109375 145.65625 L -234.410156 145.65625 C -234.410156 139.804688 -234.410156 133.71875 -234.410156 127.632812 C -234.453125 -14.730469 -234.464844 -157.09375 -234.445312 -299.453125 C -234.714844 -306.664062 -233.972656 -313.765625 -232.21875 -320.765625 C -227.570312 -336.371094 -214.007812 -344.535156 -197.835938 -342.769531 C -196.9375 -342.675781 -196.046875 -342.539062 -195.164062 -342.363281 C -194.277344 -342.1875 -193.402344 -341.976562 -192.535156 -341.726562 C -191.671875 -341.476562 -190.816406 -341.1875 -189.976562 -340.863281 C -189.132812 -340.535156 -188.308594 -340.175781 -187.5 -339.777344 C -186.6875 -339.382812 -185.898438 -338.949219 -185.125 -338.484375 C -184.351562 -338.019531 -183.601562 -337.519531 -182.875 -336.988281 C -182.144531 -336.457031 -181.441406 -335.894531 -180.761719 -335.304688 C -180.082031 -334.710938 -179.425781 -334.089844 -178.800781 -333.441406 C -178.175781 -332.792969 -177.578125 -332.117188 -177.011719 -331.417969 C -176.445312 -330.714844 -175.910156 -329.992188 -175.40625 -329.242188 C -174.898438 -328.496094 -174.429688 -327.726562 -173.992188 -326.9375 C -173.554688 -326.148438 -173.152344 -325.34375 -172.785156 -324.519531 C -172.417969 -323.695312 -172.085938 -322.855469 -171.792969 -322.003906 C -171.5 -321.152344 -171.242188 -320.289062 -171.023438 -319.414062 C -170.804688 -318.539062 -170.625 -317.65625 -170.480469 -316.765625 C -170.339844 -315.875 -170.234375 -314.980469 -170.171875 -314.082031 C -169.804688 -309.136719 -169.699219 -304.183594 -169.847656 -299.230469 C -169.820312 -156.417969 -169.808594 -13.605469 -169.804688 129.207031 Z M -169.804688 146.582031 " fill-opacity="1" fill-rule="nonzero"/></svg>