<svg xmlns="http://www.w3.org/2000/svg" xmlns:xlink="http://www.w3.org/1999/xlink" width="1920" zoomAndPan="magnify" viewBox="0 0 1440 809.999993" height="1080" preserveAspectRatio="xMidYMid meet" version="1.0"><metadata><ContainsAiGeneratedContent>Yes</ContainsAiGeneratedContent></metadata><defs><g/></defs><rect x="-144" width="1728" fill="#ffffff" y="-80.999999" height="971.999992" fill-opacity="1"/><rect x="-144" width="1728" fill="#ffffff" y="-80.999999" height="971.999992" fill-opacity="1"/><g fill="#950500" fill-opacity="1"><g transform="translate(176.315359, 407.07293)"><g><path d="M 159.140625 -160.96875 L 102.515625 -51.140625 L 102.515625 0 L 57.53125 0 L 57.53125 -51.140625 L 0.90625 -160.96875 L 52.0625 -160.96875 L 80.375 -98.859375 L 108.6875 -160.96875 Z M 159.140625 -160.96875 "/></g></g></g><g fill="#950500" fill-opacity="1"><g transform="translate(318.103167, 407.07293)"><g><path d="M 72.375 1.59375 C 59.59375 1.59375 48.140625 -1.066406 38.015625 -6.390625 C 27.890625 -11.722656 19.9375 -19.332031 14.15625 -29.21875 C 8.375 -39.113281 5.484375 -50.757812 5.484375 -64.15625 C 5.484375 -77.40625 8.410156 -88.972656 14.265625 -98.859375 C 20.128906 -108.753906 28.117188 -116.363281 38.234375 -121.6875 C 48.359375 -127.019531 59.816406 -129.6875 72.609375 -129.6875 C 85.390625 -129.6875 96.84375 -127.019531 106.96875 -121.6875 C 117.09375 -116.363281 125.082031 -108.753906 130.9375 -98.859375 C 136.800781 -88.972656 139.734375 -77.40625 139.734375 -64.15625 C 139.734375 -50.914062 136.800781 -39.3125 130.9375 -29.34375 C 125.082031 -19.375 117.054688 -11.722656 106.859375 -6.390625 C 96.660156 -1.066406 85.164062 1.59375 72.375 1.59375 Z M 72.375 -37.21875 C 78.613281 -37.21875 83.828125 -39.535156 88.015625 -44.171875 C 92.203125 -48.816406 94.296875 -55.476562 94.296875 -64.15625 C 94.296875 -72.832031 92.203125 -79.453125 88.015625 -84.015625 C 83.828125 -88.585938 78.691406 -90.875 72.609375 -90.875 C 66.515625 -90.875 61.410156 -88.585938 57.296875 -84.015625 C 53.191406 -79.453125 51.140625 -72.832031 51.140625 -64.15625 C 51.140625 -55.332031 53.117188 -48.632812 57.078125 -44.0625 C 61.035156 -39.5 66.132812 -37.21875 72.375 -37.21875 Z M 72.375 -37.21875 "/></g></g></g><g fill="#950500" fill-opacity="1"><g transform="translate(445.050043, 407.07293)"><g><path d="M 143.84375 -128.09375 L 143.84375 0 L 98.859375 0 L 98.859375 -18.265625 C 95.054688 -12.484375 89.804688 -7.800781 83.109375 -4.21875 C 76.410156 -0.644531 68.722656 1.140625 60.046875 1.140625 C 45.128906 1.140625 33.367188 -3.765625 24.765625 -13.578125 C 16.171875 -23.398438 11.875 -36.757812 11.875 -53.65625 L 11.875 -128.09375 L 56.390625 -128.09375 L 56.390625 -59.359375 C 56.390625 -52.054688 58.332031 -46.3125 62.21875 -42.125 C 66.101562 -37.9375 71.238281 -35.84375 77.625 -35.84375 C 84.175781 -35.84375 89.351562 -37.9375 93.15625 -42.125 C 96.957031 -46.3125 98.859375 -52.054688 98.859375 -59.359375 L 98.859375 -128.09375 Z M 143.84375 -128.09375 "/></g></g></g><g fill="#950500" fill-opacity="1"><g transform="translate(583.413043, 407.07293)"><g><path d="M 57.53125 -105.484375 C 62.5625 -112.796875 68.648438 -118.582031 75.796875 -122.84375 C 82.953125 -127.101562 90.640625 -129.234375 98.859375 -129.234375 L 98.859375 -81.515625 L 86.3125 -81.515625 C 76.5625 -81.515625 69.328125 -79.609375 64.609375 -75.796875 C 59.890625 -71.992188 57.53125 -65.375 57.53125 -55.9375 L 57.53125 0 L 12.78125 0 L 12.78125 -128.09375 L 57.53125 -128.09375 Z M 57.53125 -105.484375 "/></g></g></g><g fill="#151416" fill-opacity="1"><g transform="translate(176.315359, 573.572922)"><g><path d="M 115.53125 -108 C 112.945312 -112.257812 109.410156 -115.53125 104.921875 -117.8125 C 100.429688 -120.101562 95.140625 -121.25 89.046875 -121.25 C 77.785156 -121.25 68.921875 -117.59375 62.453125 -110.28125 C 55.984375 -102.976562 52.75 -93.160156 52.75 -80.828125 C 52.75 -66.972656 56.207031 -56.429688 63.125 -49.203125 C 70.050781 -41.972656 80.140625 -38.359375 93.390625 -38.359375 C 109.066406 -38.359375 120.253906 -45.4375 126.953125 -59.59375 L 81.96875 -59.59375 L 81.96875 -91.78125 L 165.53125 -91.78125 L 165.53125 -48.40625 C 162.03125 -39.882812 156.894531 -31.894531 150.125 -24.4375 C 143.351562 -16.976562 134.789062 -10.847656 124.4375 -6.046875 C 114.082031 -1.253906 102.285156 1.140625 89.046875 1.140625 C 72.910156 1.140625 58.640625 -2.320312 46.234375 -9.25 C 33.828125 -16.175781 24.238281 -25.84375 17.46875 -38.25 C 10.695312 -50.65625 7.3125 -64.847656 7.3125 -80.828125 C 7.3125 -96.660156 10.695312 -110.78125 17.46875 -123.1875 C 24.238281 -135.59375 33.785156 -145.253906 46.109375 -152.171875 C 58.441406 -159.097656 72.675781 -162.5625 88.8125 -162.5625 C 109.0625 -162.5625 125.804688 -157.691406 139.046875 -147.953125 C 152.296875 -138.210938 160.519531 -124.894531 163.71875 -108 Z M 115.53125 -108 "/></g></g></g><g fill="#151416" fill-opacity="1"><g transform="translate(330.889211, 573.572922)"><g><path d="M 57.53125 -105.484375 C 62.5625 -112.796875 68.648438 -118.582031 75.796875 -122.84375 C 82.953125 -127.101562 90.640625 -129.234375 98.859375 -129.234375 L 98.859375 -81.515625 L 86.3125 -81.515625 C 76.5625 -81.515625 69.328125 -79.609375 64.609375 -75.796875 C 59.890625 -71.992188 57.53125 -65.375 57.53125 -55.9375 L 57.53125 0 L 12.78125 0 L 12.78125 -128.09375 L 57.53125 -128.09375 Z M 57.53125 -105.484375 "/></g></g></g><g fill="#151416" fill-opacity="1"><g transform="translate(414.683236, 573.572922)"><g><path d="M 72.375 1.59375 C 59.59375 1.59375 48.140625 -1.066406 38.015625 -6.390625 C 27.890625 -11.722656 19.9375 -19.332031 14.15625 -29.21875 C 8.375 -39.113281 5.484375 -50.757812 5.484375 -64.15625 C 5.484375 -77.40625 8.410156 -88.972656 14.265625 -98.859375 C 20.128906 -108.753906 28.117188 -116.363281 38.234375 -121.6875 C 48.359375 -127.019531 59.816406 -129.6875 72.609375 -129.6875 C 85.390625 -129.6875 96.84375 -127.019531 106.96875 -121.6875 C 117.09375 -116.363281 125.082031 -108.753906 130.9375 -98.859375 C 136.800781 -88.972656 139.734375 -77.40625 139.734375 -64.15625 C 139.734375 -50.914062 136.800781 -39.3125 130.9375 -29.34375 C 125.082031 -19.375 117.054688 -11.722656 106.859375 -6.390625 C 96.660156 -1.066406 85.164062 1.59375 72.375 1.59375 Z M 72.375 -37.21875 C 78.613281 -37.21875 83.828125 -39.535156 88.015625 -44.171875 C 92.203125 -48.816406 94.296875 -55.476562 94.296875 -64.15625 C 94.296875 -72.832031 92.203125 -79.453125 88.015625 -84.015625 C 83.828125 -88.585938 78.691406 -90.875 72.609375 -90.875 C 66.515625 -90.875 61.410156 -88.585938 57.296875 -84.015625 C 53.191406 -79.453125 51.140625 -72.832031 51.140625 -64.15625 C 51.140625 -55.332031 53.117188 -48.632812 57.078125 -44.0625 C 61.035156 -39.5 66.132812 -37.21875 72.375 -37.21875 Z M 72.375 -37.21875 "/></g></g></g><g fill="#151416" fill-opacity="1"><g transform="translate(541.630112, 573.572922)"><g><path d="M 202.078125 -128.09375 L 169.421875 0 L 119.1875 0 L 101.375 -77.625 L 82.890625 0 L 32.875 0 L 0.453125 -128.09375 L 44.984375 -128.09375 L 59.359375 -43.15625 L 78.3125 -128.09375 L 126.265625 -128.09375 L 145.90625 -42.921875 L 160.0625 -128.09375 Z M 202.078125 -128.09375 "/></g></g></g><g fill="#151416" fill-opacity="1"><g transform="translate(725.42922, 573.572922)"><g><path d="M 88.359375 -38.125 L 88.359375 0 L 68.953125 0 C 36.222656 0 19.859375 -16.210938 19.859375 -48.640625 L 19.859375 -90.875 L 4.109375 -90.875 L 4.109375 -128.09375 L 19.859375 -128.09375 L 19.859375 -159.140625 L 64.84375 -159.140625 L 64.84375 -128.09375 L 88.140625 -128.09375 L 88.140625 -90.875 L 64.84375 -90.875 L 64.84375 -47.953125 C 64.84375 -44.453125 65.640625 -41.9375 67.234375 -40.40625 C 68.835938 -38.882812 71.539062 -38.125 75.34375 -38.125 Z M 88.359375 -38.125 "/></g></g></g><g fill="#151416" fill-opacity="1"><g transform="translate(803.286852, 573.572922)"><g><path d="M 97.046875 -129.234375 C 111.648438 -129.234375 123.253906 -124.320312 131.859375 -114.5 C 140.460938 -104.6875 144.765625 -91.40625 144.765625 -74.65625 L 144.765625 0 L 100 0 L 100 -68.734375 C 100 -76.035156 98.097656 -81.78125 94.296875 -85.96875 C 90.492188 -90.15625 85.394531 -92.25 79 -92.25 C 72.300781 -92.25 67.046875 -90.15625 63.234375 -85.96875 C 59.429688 -81.78125 57.53125 -76.035156 57.53125 -68.734375 L 57.53125 0 L 12.78125 0 L 12.78125 -168.96875 L 57.53125 -168.96875 L 57.53125 -109.828125 C 61.488281 -115.609375 66.851562 -120.285156 73.625 -123.859375 C 80.40625 -127.441406 88.210938 -129.234375 97.046875 -129.234375 Z M 97.046875 -129.234375 "/></g></g></g><path fill="#f24528" d="M 1286.046875 1041.855469 C 1286.046875 1077.34375 1286.046875 1110.640625 1286.046875 1143.9375 C 1286.046875 1196.195312 1285.898438 1248.457031 1286.085938 1300.714844 C 1286.128906 1313.117188 1283.183594 1324.101562 1273.378906 1332.0625 C 1272.355469 1332.960938 1271.277344 1333.78125 1270.140625 1334.527344 C 1269.003906 1335.269531 1267.820312 1335.933594 1266.59375 1336.515625 C 1265.367188 1337.097656 1264.105469 1337.59375 1262.808594 1338 C 1261.511719 1338.40625 1260.191406 1338.722656 1258.851562 1338.945312 C 1257.511719 1339.171875 1256.164062 1339.300781 1254.804688 1339.339844 C 1253.445312 1339.375 1252.089844 1339.316406 1250.742188 1339.167969 C 1249.390625 1339.015625 1248.058594 1338.773438 1246.738281 1338.4375 C 1245.421875 1338.101562 1244.136719 1337.675781 1242.878906 1337.164062 C 1241.445312 1336.644531 1240.050781 1336.03125 1238.703125 1335.320312 C 1237.351562 1334.613281 1236.054688 1333.816406 1234.8125 1332.929688 C 1233.570312 1332.042969 1232.398438 1331.078125 1231.289062 1330.03125 C 1230.175781 1328.984375 1229.144531 1327.867188 1228.1875 1326.679688 C 1227.230469 1325.496094 1226.359375 1324.246094 1225.570312 1322.941406 C 1224.785156 1321.632812 1224.089844 1320.28125 1223.488281 1318.878906 C 1222.886719 1317.476562 1222.382812 1316.042969 1221.976562 1314.570312 C 1221.570312 1313.101562 1221.265625 1311.609375 1221.066406 1310.097656 C 1220.425781 1305.175781 1220.214844 1300.234375 1220.433594 1295.273438 C 1220.359375 1095.246094 1220.3125 895.21875 1220.289062 695.191406 C 1220.289062 691.621094 1220.597656 688.050781 1220.828125 682.882812 C 1223.226562 684.210938 1225.5 685.722656 1227.652344 687.417969 C 1289.445312 747.285156 1351.222656 807.167969 1412.984375 867.0625 C 1423.171875 876.910156 1429.984375 887.757812 1429.394531 902.554688 C 1429.125 909.378906 1426.613281 912.199219 1419.660156 912.074219 C 1403.898438 911.804688 1388.0625 912.820312 1372.394531 911.566406 C 1366.457031 911.09375 1359.957031 906.839844 1355.339844 902.566406 C 1332.875 881.816406 1310.957031 860.472656 1286.972656 837.550781 L 1286.972656 977.246094 C 1292.824219 977.246094 1298.910156 977.246094 1304.996094 977.246094 C 1447.359375 977.207031 1589.722656 977.195312 1732.082031 977.214844 C 1739.292969 976.941406 1746.394531 977.683594 1753.390625 979.441406 C 1768.996094 984.085938 1777.164062 997.652344 1775.398438 1013.824219 C 1775.304688 1014.71875 1775.167969 1015.609375 1774.992188 1016.496094 C 1774.816406 1017.378906 1774.605469 1018.257812 1774.355469 1019.121094 C 1774.101562 1019.988281 1773.816406 1020.84375 1773.492188 1021.683594 C 1773.164062 1022.523438 1772.804688 1023.351562 1772.40625 1024.160156 C 1772.011719 1024.96875 1771.578125 1025.761719 1771.113281 1026.535156 C 1770.648438 1027.304688 1770.148438 1028.054688 1769.617188 1028.785156 C 1769.085938 1029.515625 1768.523438 1030.21875 1767.933594 1030.898438 C 1767.339844 1031.578125 1766.71875 1032.230469 1766.070312 1032.855469 C 1765.421875 1033.484375 1764.746094 1034.078125 1764.042969 1034.648438 C 1763.34375 1035.214844 1762.617188 1035.75 1761.871094 1036.253906 C 1761.125 1036.757812 1760.355469 1037.230469 1759.566406 1037.667969 C 1758.777344 1038.105469 1757.972656 1038.507812 1757.148438 1038.875 C 1756.324219 1039.242188 1755.484375 1039.570312 1754.632812 1039.867188 C 1753.78125 1040.160156 1752.917969 1040.417969 1752.042969 1040.636719 C 1751.167969 1040.855469 1750.285156 1041.035156 1749.394531 1041.175781 C 1748.503906 1041.320312 1747.609375 1041.421875 1746.710938 1041.488281 C 1741.765625 1041.851562 1736.8125 1041.960938 1731.859375 1041.8125 C 1589.042969 1041.835938 1446.230469 1041.851562 1303.421875 1041.855469 Z M 1286.046875 1041.855469 " fill-opacity="1" fill-rule="nonzero"/><path fill="#151416" d="M 1738.59375 913.78125 C 1723.957031 915.523438 1711.285156 907.5625 1699.390625 895.878906 C 1582.183594 780.527344 1464.828125 665.328125 1347.328125 550.285156 C 1318.375 521.898438 1289.179688 493.761719 1260.167969 465.433594 C 1250 455.503906 1245.761719 443.679688 1250.550781 429.773438 C 1251.007812 428.316406 1251.566406 426.898438 1252.226562 425.523438 C 1252.886719 424.144531 1253.640625 422.820312 1254.488281 421.550781 C 1255.332031 420.28125 1256.265625 419.078125 1257.28125 417.9375 C 1258.300781 416.800781 1259.394531 415.738281 1260.5625 414.753906 C 1261.730469 413.773438 1262.960938 412.875 1264.257812 412.066406 C 1265.550781 411.257812 1266.898438 410.542969 1268.292969 409.925781 C 1269.6875 409.308594 1271.121094 408.792969 1272.589844 408.378906 C 1274.0625 407.960938 1275.550781 407.652344 1277.066406 407.449219 C 1290.734375 405.015625 1300.257812 412.964844 1309.117188 421.507812 C 1342.179688 453.421875 1375.148438 485.429688 1408.027344 517.535156 C 1526.085938 632.636719 1644.175781 747.71875 1762.292969 862.789062 C 1772.566406 872.773438 1779.078125 883.179688 1773.558594 897.359375 C 1767.859375 912.019531 1755.015625 914.296875 1738.59375 913.78125 Z M 1738.59375 913.78125 " fill-opacity="1" fill-rule="nonzero"/><path fill="#950500" d="M 1568.882812 912.019531 C 1548.988281 918.082031 1533.570312 905.847656 1517.996094 890.523438 C 1400.152344 774.582031 1282.054688 658.898438 1163.707031 543.46875 C 1149.828125 529.878906 1146.507812 516.164062 1153.070312 502.132812 C 1158.871094 489.730469 1171.257812 481.125 1184.792969 484.347656 C 1189.929688 485.726562 1194.808594 487.722656 1199.4375 490.339844 C 1204.066406 492.957031 1208.292969 496.109375 1212.117188 499.800781 C 1261.59375 547.113281 1310.429688 595.105469 1359.367188 642.984375 C 1435.992188 717.960938 1512.738281 792.820312 1588.808594 868.359375 C 1596.90625 876.402344 1602 888.183594 1606.304688 899.09375 C 1609.359375 906.824219 1605.683594 912.972656 1595.320312 912.140625 C 1587.714844 911.527344 1580.015625 912.019531 1568.882812 912.019531 Z M 1568.882812 912.019531 " fill-opacity="1" fill-rule="nonzero"/><path fill="#f24528" d="M 284.507812 -176.65625 C 284.507812 -141.167969 284.507812 -107.875 284.507812 -74.578125 C 284.507812 -22.316406 284.359375 29.945312 284.546875 82.203125 C 284.589844 94.605469 281.644531 105.589844 271.839844 113.550781 C 270.816406 114.445312 269.738281 115.265625 268.601562 116.011719 C 267.464844 116.757812 266.28125 117.421875 265.054688 118.003906 C 263.828125 118.585938 262.5625 119.078125 261.265625 119.488281 C 259.972656 119.894531 258.652344 120.210938 257.3125 120.433594 C 255.972656 120.65625 254.621094 120.789062 253.265625 120.824219 C 251.90625 120.863281 250.550781 120.804688 249.199219 120.652344 C 247.851562 120.503906 246.515625 120.261719 245.199219 119.925781 C 243.882812 119.589844 242.597656 119.164062 241.339844 118.648438 C 239.902344 118.132812 238.511719 117.515625 237.160156 116.808594 C 235.8125 116.101562 234.515625 115.300781 233.273438 114.417969 C 232.03125 113.53125 230.855469 112.566406 229.746094 111.519531 C 228.636719 110.472656 227.605469 109.355469 226.648438 108.167969 C 225.691406 106.980469 224.816406 105.734375 224.03125 104.425781 C 223.246094 103.121094 222.550781 101.765625 221.949219 100.367188 C 221.347656 98.964844 220.84375 97.527344 220.4375 96.058594 C 220.03125 94.589844 219.726562 93.097656 219.523438 91.585938 C 218.886719 86.660156 218.675781 81.71875 218.894531 76.757812 C 218.820312 -123.265625 218.773438 -323.292969 218.75 -523.320312 C 218.75 -526.890625 219.058594 -530.464844 219.289062 -535.628906 C 221.6875 -534.304688 223.960938 -532.792969 226.113281 -531.09375 C 287.902344 -471.226562 349.683594 -411.34375 411.445312 -351.449219 C 421.628906 -341.605469 428.445312 -330.753906 427.855469 -315.960938 C 427.582031 -309.132812 425.070312 -306.3125 418.121094 -306.4375 C 402.359375 -306.707031 386.519531 -305.695312 370.851562 -306.945312 C 364.917969 -307.417969 358.417969 -311.671875 353.800781 -315.945312 C 331.335938 -336.695312 309.414062 -358.039062 285.433594 -380.964844 L 285.433594 -241.265625 C 291.285156 -241.265625 297.371094 -241.265625 303.457031 -241.265625 C 445.820312 -241.308594 588.183594 -241.320312 730.542969 -241.300781 C 737.75 -241.570312 744.855469 -240.828125 751.851562 -239.070312 C 767.457031 -234.425781 775.621094 -220.863281 773.859375 -204.6875 C 773.761719 -203.792969 773.628906 -202.902344 773.453125 -202.015625 C 773.277344 -201.132812 773.066406 -200.257812 772.8125 -199.390625 C 772.5625 -198.523438 772.277344 -197.671875 771.949219 -196.828125 C 771.625 -195.988281 771.265625 -195.164062 770.867188 -194.351562 C 770.46875 -193.542969 770.039062 -192.753906 769.574219 -191.980469 C 769.109375 -191.207031 768.609375 -190.457031 768.078125 -189.726562 C 767.546875 -189 766.984375 -188.296875 766.394531 -187.613281 C 765.800781 -186.933594 765.179688 -186.28125 764.53125 -185.65625 C 763.882812 -185.03125 763.207031 -184.433594 762.503906 -183.867188 C 761.804688 -183.300781 761.078125 -182.761719 760.332031 -182.257812 C 759.582031 -181.753906 758.816406 -181.285156 758.027344 -180.847656 C 757.238281 -180.410156 756.433594 -180.007812 755.609375 -179.640625 C 754.785156 -179.273438 753.945312 -178.941406 753.09375 -178.648438 C 752.242188 -178.355469 751.378906 -178.097656 750.503906 -177.878906 C 749.628906 -177.660156 748.746094 -177.476562 747.855469 -177.335938 C 746.964844 -177.195312 746.070312 -177.089844 745.167969 -177.027344 C 740.222656 -176.660156 735.273438 -176.550781 730.316406 -176.703125 C 587.503906 -176.675781 444.691406 -176.660156 301.882812 -176.65625 Z M 284.507812 -176.65625 " fill-opacity="1" fill-rule="nonzero"/></svg>