<svg xmlns="http://www.w3.org/2000/svg" xmlns:xlink="http://www.w3.org/1999/xlink" width="1920" zoomAndPan="magnify" viewBox="0 0 1440 809.999993" height="1080" preserveAspectRatio="xMidYMid meet" version="1.0"><metadata><ContainsAiGeneratedContent>Yes</ContainsAiGeneratedContent></metadata><defs><filter x="0%" y="0%" width="100%" height="100%" id="82c625116b"><feColorMatrix values="0 0 0 0 1 0 0 0 0 1 0 0 0 0 1 0 0 0 1 0" color-interpolation-filters="sRGB"/></filter><g/><mask id="6c2d5856e5"><g filter="url(#82c625116b)"><rect x="-144" width="1728" fill="#000000" y="-80.999999" height="971.999992" fill-opacity="0.08"/></g></mask><clipPath id="224cbcc03c"><rect x="0" width="460" y="0" height="322"/></clipPath><mask id="68c5e77749"><g filter="url(#82c625116b)"><rect x="-144" width="1728" fill="#000000" y="-80.999999" height="971.999992" fill-opacity="0.08"/></g></mask><clipPath id="bef67e914b"><rect x="0" width="461" y="0" height="322"/></clipPath><clipPath id="a0738a27db"><path d="M 0 652 L 411 652 L 411 810 L 0 810 Z M 0 652 " clip-rule="nonzero"/></clipPath><clipPath id="315f437a9a"><path d="M -16.078125 224.386719 L 633.648438 898.148438 L 177.996094 1337.546875 L -471.726562 663.785156 Z M -16.078125 224.386719 " clip-rule="nonzero"/></clipPath><clipPath id="10b088c6d3"><path d="M -16.078125 224.386719 L 633.648438 898.148438 L 177.996094 1337.546875 L -471.726562 663.785156 Z M -16.078125 224.386719 " clip-rule="nonzero"/></clipPath><clipPath id="9aa3d1ed49"><path d="M 0 562 L 324 562 L 324 634 L 0 634 Z M 0 562 " clip-rule="nonzero"/></clipPath><clipPath id="03aa809c6c"><path d="M -16.078125 224.386719 L 633.648438 898.148438 L 177.996094 1337.546875 L -471.726562 663.785156 Z M -16.078125 224.386719 " clip-rule="nonzero"/></clipPath><clipPath id="3f1796b054"><path d="M -16.078125 224.386719 L 633.648438 898.148438 L 177.996094 1337.546875 L -471.726562 663.785156 Z M -16.078125 224.386719 " clip-rule="nonzero"/></clipPath><clipPath id="ee2a06fb9c"><path d="M 0 686 L 209 686 L 209 756 L 0 756 Z M 0 686 " clip-rule="nonzero"/></clipPath><clipPath id="363e511557"><path d="M -16.078125 224.386719 L 633.648438 898.148438 L 177.996094 1337.546875 L -471.726562 663.785156 Z M -16.078125 224.386719 " clip-rule="nonzero"/></clipPath><clipPath id="cf05d3aacf"><path d="M -16.078125 224.386719 L 633.648438 898.148438 L 177.996094 1337.546875 L -471.726562 663.785156 Z M -16.078125 224.386719 " clip-rule="nonzero"/></clipPath></defs><rect x="-144" width="1728" fill="#ffffff" y="-80.999999" height="971.999992" fill-opacity="1"/><rect x="-144" width="1728" fill="#151416" y="-80.999999" height="971.999992" fill-opacity="1"/><g fill="#ffffff" fill-opacity="1"><g transform="translate(484.827102, 484.176086)"><g><path d="M 202.0625 -128.078125 L 169.40625 0 L 119.171875 0 L 101.375 -77.625 L 82.875 0 L 32.875 0 L 0.453125 -128.078125 L 44.984375 -128.078125 L 59.359375 -43.15625 L 78.3125 -128.078125 L 126.25 -128.078125 L 145.890625 -42.921875 L 160.046875 -128.078125 Z M 202.0625 -128.078125 "/></g></g></g><g fill="#ffffff" fill-opacity="1"><g transform="translate(668.611789, 484.176086)"><g><path d="M 35.390625 -139.953125 C 27.472656 -139.953125 21.113281 -142.117188 16.3125 -146.453125 C 11.519531 -150.796875 9.125 -156.238281 9.125 -162.78125 C 9.125 -169.476562 11.519531 -175.035156 16.3125 -179.453125 C 21.113281 -183.867188 27.472656 -186.078125 35.390625 -186.078125 C 43.148438 -186.078125 49.425781 -183.867188 54.21875 -179.453125 C 59.019531 -175.035156 61.421875 -169.476562 61.421875 -162.78125 C 61.421875 -156.238281 59.019531 -150.796875 54.21875 -146.453125 C 49.425781 -142.117188 43.148438 -139.953125 35.390625 -139.953125 Z M 57.53125 -128.078125 L 57.53125 0 L 12.78125 0 L 12.78125 -128.078125 Z M 57.53125 -128.078125 "/></g></g></g><g fill="#ffffff" fill-opacity="1"><g transform="translate(720.663995, 484.176086)"><g><path d="M 88.359375 -38.125 L 88.359375 0 L 68.953125 0 C 36.222656 0 19.859375 -16.207031 19.859375 -48.625 L 19.859375 -90.875 L 4.109375 -90.875 L 4.109375 -128.078125 L 19.859375 -128.078125 L 19.859375 -159.140625 L 64.84375 -159.140625 L 64.84375 -128.078125 L 88.125 -128.078125 L 88.125 -90.875 L 64.84375 -90.875 L 64.84375 -47.953125 C 64.84375 -44.441406 65.640625 -41.925781 67.234375 -40.40625 C 68.835938 -38.882812 71.539062 -38.125 75.34375 -38.125 Z M 88.359375 -38.125 "/></g></g></g><g fill="#ffffff" fill-opacity="1"><g transform="translate(798.514775, 484.176086)"><g><path d="M 97.03125 -129.21875 C 111.644531 -129.21875 123.25 -124.304688 131.84375 -114.484375 C 140.445312 -104.671875 144.75 -91.394531 144.75 -74.65625 L 144.75 0 L 100 0 L 100 -68.71875 C 100 -76.03125 98.09375 -81.773438 94.28125 -85.953125 C 90.476562 -90.140625 85.382812 -92.234375 79 -92.234375 C 72.300781 -92.234375 67.046875 -90.140625 63.234375 -85.953125 C 59.429688 -81.773438 57.53125 -76.03125 57.53125 -68.71875 L 57.53125 0 L 12.78125 0 L 12.78125 -168.953125 L 57.53125 -168.953125 L 57.53125 -109.8125 C 61.488281 -115.601562 66.851562 -120.285156 73.625 -123.859375 C 80.40625 -127.429688 88.207031 -129.21875 97.03125 -129.21875 Z M 97.03125 -129.21875 "/></g></g></g><g mask="url(#6c2d5856e5)"><g transform="matrix(1, 0, 0, 1, 32, 243)"><g clip-path="url(#224cbcc03c)"><g fill="#ffffff" fill-opacity="1"><g transform="translate(0.747455, 241.176028)"><g><path d="M 202.0625 -128.078125 L 169.40625 0 L 119.171875 0 L 101.375 -77.625 L 82.875 0 L 32.875 0 L 0.453125 -128.078125 L 44.984375 -128.078125 L 59.359375 -43.15625 L 78.3125 -128.078125 L 126.25 -128.078125 L 145.890625 -42.921875 L 160.046875 -128.078125 Z M 202.0625 -128.078125 "/></g></g></g><g fill="#ffffff" fill-opacity="1"><g transform="translate(184.532142, 241.176028)"><g><path d="M 35.390625 -139.953125 C 27.472656 -139.953125 21.113281 -142.117188 16.3125 -146.453125 C 11.519531 -150.796875 9.125 -156.238281 9.125 -162.78125 C 9.125 -169.476562 11.519531 -175.035156 16.3125 -179.453125 C 21.113281 -183.867188 27.472656 -186.078125 35.390625 -186.078125 C 43.148438 -186.078125 49.425781 -183.867188 54.21875 -179.453125 C 59.019531 -175.035156 61.421875 -169.476562 61.421875 -162.78125 C 61.421875 -156.238281 59.019531 -150.796875 54.21875 -146.453125 C 49.425781 -142.117188 43.148438 -139.953125 35.390625 -139.953125 Z M 57.53125 -128.078125 L 57.53125 0 L 12.78125 0 L 12.78125 -128.078125 Z M 57.53125 -128.078125 "/></g></g></g><g fill="#ffffff" fill-opacity="1"><g transform="translate(236.584348, 241.176028)"><g><path d="M 88.359375 -38.125 L 88.359375 0 L 68.953125 0 C 36.222656 0 19.859375 -16.207031 19.859375 -48.625 L 19.859375 -90.875 L 4.109375 -90.875 L 4.109375 -128.078125 L 19.859375 -128.078125 L 19.859375 -159.140625 L 64.84375 -159.140625 L 64.84375 -128.078125 L 88.125 -128.078125 L 88.125 -90.875 L 64.84375 -90.875 L 64.84375 -47.953125 C 64.84375 -44.441406 65.640625 -41.925781 67.234375 -40.40625 C 68.835938 -38.882812 71.539062 -38.125 75.34375 -38.125 Z M 88.359375 -38.125 "/></g></g></g><g fill="#ffffff" fill-opacity="1"><g transform="translate(314.435128, 241.176028)"><g><path d="M 97.03125 -129.21875 C 111.644531 -129.21875 123.25 -124.304688 131.84375 -114.484375 C 140.445312 -104.671875 144.75 -91.394531 144.75 -74.65625 L 144.75 0 L 100 0 L 100 -68.71875 C 100 -76.03125 98.09375 -81.773438 94.28125 -85.953125 C 90.476562 -90.140625 85.382812 -92.234375 79 -92.234375 C 72.300781 -92.234375 67.046875 -90.140625 63.234375 -85.953125 C 59.429688 -81.773438 57.53125 -76.03125 57.53125 -68.71875 L 57.53125 0 L 12.78125 0 L 12.78125 -168.953125 L 57.53125 -168.953125 L 57.53125 -109.8125 C 61.488281 -115.601562 66.851562 -120.285156 73.625 -123.859375 C 80.40625 -127.429688 88.207031 -129.21875 97.03125 -129.21875 Z M 97.03125 -129.21875 "/></g></g></g></g></g></g><g mask="url(#68c5e77749)"><g transform="matrix(1, 0, 0, 1, 936, 243)"><g clip-path="url(#bef67e914b)"><g fill="#ffffff" fill-opacity="1"><g transform="translate(0.906815, 241.176028)"><g><path d="M 202.0625 -128.078125 L 169.40625 0 L 119.171875 0 L 101.375 -77.625 L 82.875 0 L 32.875 0 L 0.453125 -128.078125 L 44.984375 -128.078125 L 59.359375 -43.15625 L 78.3125 -128.078125 L 126.25 -128.078125 L 145.890625 -42.921875 L 160.046875 -128.078125 Z M 202.0625 -128.078125 "/></g></g></g><g fill="#ffffff" fill-opacity="1"><g transform="translate(184.691502, 241.176028)"><g><path d="M 35.390625 -139.953125 C 27.472656 -139.953125 21.113281 -142.117188 16.3125 -146.453125 C 11.519531 -150.796875 9.125 -156.238281 9.125 -162.78125 C 9.125 -169.476562 11.519531 -175.035156 16.3125 -179.453125 C 21.113281 -183.867188 27.472656 -186.078125 35.390625 -186.078125 C 43.148438 -186.078125 49.425781 -183.867188 54.21875 -179.453125 C 59.019531 -175.035156 61.421875 -169.476562 61.421875 -162.78125 C 61.421875 -156.238281 59.019531 -150.796875 54.21875 -146.453125 C 49.425781 -142.117188 43.148438 -139.953125 35.390625 -139.953125 Z M 57.53125 -128.078125 L 57.53125 0 L 12.78125 0 L 12.78125 -128.078125 Z M 57.53125 -128.078125 "/></g></g></g><g fill="#ffffff" fill-opacity="1"><g transform="translate(236.743708, 241.176028)"><g><path d="M 88.359375 -38.125 L 88.359375 0 L 68.953125 0 C 36.222656 0 19.859375 -16.207031 19.859375 -48.625 L 19.859375 -90.875 L 4.109375 -90.875 L 4.109375 -128.078125 L 19.859375 -128.078125 L 19.859375 -159.140625 L 64.84375 -159.140625 L 64.84375 -128.078125 L 88.125 -128.078125 L 88.125 -90.875 L 64.84375 -90.875 L 64.84375 -47.953125 C 64.84375 -44.441406 65.640625 -41.925781 67.234375 -40.40625 C 68.835938 -38.882812 71.539062 -38.125 75.34375 -38.125 Z M 88.359375 -38.125 "/></g></g></g><g fill="#ffffff" fill-opacity="1"><g transform="translate(314.594488, 241.176028)"><g><path d="M 97.03125 -129.21875 C 111.644531 -129.21875 123.25 -124.304688 131.84375 -114.484375 C 140.445312 -104.671875 144.75 -91.394531 144.75 -74.65625 L 144.75 0 L 100 0 L 100 -68.71875 C 100 -76.03125 98.09375 -81.773438 94.28125 -85.953125 C 90.476562 -90.140625 85.382812 -92.234375 79 -92.234375 C 72.300781 -92.234375 67.046875 -90.140625 63.234375 -85.953125 C 59.429688 -81.773438 57.53125 -76.03125 57.53125 -68.71875 L 57.53125 0 L 12.78125 0 L 12.78125 -168.953125 L 57.53125 -168.953125 L 57.53125 -109.8125 C 61.488281 -115.601562 66.851562 -120.285156 73.625 -123.859375 C 80.40625 -127.429688 88.207031 -129.21875 97.03125 -129.21875 Z M 97.03125 -129.21875 "/></g></g></g></g></g></g><g clip-path="url(#a0738a27db)"><g clip-path="url(#315f437a9a)"><g clip-path="url(#10b088c6d3)"><path fill="#950500" d="M 70.984375 1025.164062 C 95.621094 1050.707031 118.730469 1074.675781 141.847656 1098.644531 C 178.121094 1136.261719 214.292969 1173.984375 250.703125 1211.472656 C 259.339844 1220.367188 264.847656 1230.320312 263.316406 1242.859375 C 263.199219 1244.210938 262.992188 1245.550781 262.691406 1246.878906 C 262.394531 1248.203125 262.003906 1249.5 261.523438 1250.773438 C 261.042969 1252.042969 260.476562 1253.273438 259.828125 1254.46875 C 259.175781 1255.660156 258.445312 1256.804688 257.636719 1257.894531 C 256.828125 1258.988281 255.945312 1260.015625 254.996094 1260.988281 C 254.042969 1261.957031 253.027344 1262.855469 251.949219 1263.683594 C 250.875 1264.511719 249.746094 1265.265625 248.566406 1265.9375 C 247.382812 1266.609375 246.164062 1267.195312 244.898438 1267.699219 C 243.507812 1268.320312 242.078125 1268.847656 240.617188 1269.273438 C 239.152344 1269.699219 237.664062 1270.027344 236.15625 1270.25 C 234.648438 1270.476562 233.132812 1270.59375 231.605469 1270.613281 C 230.082031 1270.628906 228.5625 1270.542969 227.050781 1270.351562 C 225.535156 1270.164062 224.042969 1269.871094 222.570312 1269.476562 C 221.097656 1269.082031 219.65625 1268.589844 218.25 1267.996094 C 216.84375 1267.40625 215.484375 1266.722656 214.171875 1265.945312 C 212.859375 1265.167969 211.605469 1264.308594 210.410156 1263.359375 C 206.535156 1260.257812 202.953125 1256.847656 199.664062 1253.125 C 60.765625 1109.191406 -78.117188 965.238281 -216.984375 821.269531 C -219.464844 818.699219 -221.722656 815.914062 -225.140625 812.035156 C -222.492188 811.324219 -219.808594 810.835938 -217.082031 810.566406 C -131.042969 810.765625 -45.007812 810.988281 41.027344 811.226562 C 55.195312 811.246094 67.632812 814.324219 77.472656 825.382812 C 82.019531 830.484375 82.167969 834.257812 77.078125 838.996094 C 65.542969 849.742188 54.847656 861.464844 42.699219 871.441406 C 38.101562 875.21875 30.46875 876.671875 24.175781 876.800781 C -6.398438 877.457031 -36.988281 877.308594 -70.167969 877.457031 L 26.804688 978.011719 C 31.015625 973.949219 35.398438 969.726562 39.777344 965.5 C 142.226562 866.648438 244.695312 767.820312 347.183594 669.015625 C 352.183594 663.816406 357.8125 659.417969 364.070312 655.828125 C 378.527344 648.339844 393.820312 652.433594 403.777344 665.300781 C 404.332031 666.011719 404.851562 666.746094 405.339844 667.507812 C 405.828125 668.265625 406.28125 669.042969 406.703125 669.839844 C 407.125 670.636719 407.507812 671.453125 407.859375 672.28125 C 408.210938 673.113281 408.523438 673.960938 408.800781 674.816406 C 409.074219 675.675781 409.3125 676.546875 409.515625 677.425781 C 409.714844 678.304688 409.878906 679.191406 410 680.082031 C 410.125 680.976562 410.210938 681.875 410.253906 682.773438 C 410.300781 683.675781 410.308594 684.574219 410.273438 685.476562 C 410.242188 686.378906 410.171875 687.277344 410.058594 688.171875 C 409.949219 689.066406 409.796875 689.953125 409.609375 690.835938 C 409.421875 691.71875 409.195312 692.589844 408.929688 693.453125 C 408.667969 694.316406 408.367188 695.164062 408.027344 696 C 407.691406 696.835938 407.316406 697.65625 406.90625 698.460938 C 406.496094 699.265625 406.054688 700.046875 405.578125 700.8125 C 405.097656 701.578125 404.589844 702.320312 404.046875 703.042969 C 403.503906 703.761719 402.929688 704.457031 402.328125 705.128906 C 399.023438 708.824219 395.535156 712.339844 391.863281 715.671875 C 289.078125 814.824219 186.289062 913.96875 83.492188 1013.101562 Z M 70.984375 1025.164062 " fill-opacity="1" fill-rule="nonzero"/></g></g></g><g clip-path="url(#9aa3d1ed49)"><g clip-path="url(#03aa809c6c)"><g clip-path="url(#3f1796b054)"><path fill="#f24528" d="M 307.839844 618.835938 C 298.511719 630.253906 283.867188 633.316406 267.195312 633.164062 C 102.75 631.488281 -61.691406 630.027344 -226.125 628.777344 C -266.671875 628.441406 -307.222656 628.453125 -347.765625 628.199219 C -361.976562 628.113281 -373.238281 622.539062 -379.441406 609.207031 C -380.125 607.839844 -380.703125 606.433594 -381.1875 604.984375 C -381.667969 603.535156 -382.042969 602.058594 -382.316406 600.558594 C -382.589844 599.054688 -382.753906 597.542969 -382.8125 596.015625 C -382.871094 594.488281 -382.820312 592.96875 -382.660156 591.449219 C -382.503906 589.929688 -382.238281 588.429688 -381.867188 586.949219 C -381.496094 585.46875 -381.023438 584.019531 -380.449219 582.605469 C -379.871094 581.191406 -379.199219 579.824219 -378.429688 578.507812 C -377.660156 577.1875 -376.800781 575.929688 -375.851562 574.734375 C -367.703125 563.492188 -355.328125 562.605469 -343.023438 562.605469 C -297.070312 562.628906 -251.117188 562.78125 -205.167969 563.066406 C -40.289062 563.96875 124.601562 564.839844 289.5 565.679688 C 303.828125 565.734375 315.738281 568.703125 321.609375 582.742188 C 327.683594 597.253906 320.015625 607.808594 307.839844 618.835938 Z M 307.839844 618.835938 " fill-opacity="1" fill-rule="nonzero"/></g></g></g><g clip-path="url(#ee2a06fb9c)"><g clip-path="url(#363e511557)"><g clip-path="url(#cf05d3aacf)"><path fill="#ffffff" d="M 184.453125 735.371094 C 174.339844 753.546875 154.75 755.441406 132.90625 755.222656 C -32.40625 753.566406 -197.71875 752.269531 -363.03125 751.332031 C -382.457031 751.183594 -394.367188 743.617188 -399.382812 728.957031 C -403.816406 716.007812 -400.875 701.210938 -388.894531 694.140625 C -384.242188 691.566406 -379.34375 689.613281 -374.195312 688.285156 C -369.046875 686.957031 -363.8125 686.292969 -358.496094 686.292969 C -290.039062 686.007812 -221.574219 686.652344 -153.113281 687.148438 C -45.910156 687.929688 61.296875 688.542969 168.492188 690.113281 C 179.902344 690.28125 191.746094 695.226562 202.417969 700.089844 C 209.984375 703.535156 211.605469 710.511719 203.570312 717.105469 C 197.667969 721.945312 192.46875 727.644531 184.453125 735.371094 Z M 184.453125 735.371094 " fill-opacity="1" fill-rule="nonzero"/></g></g></g><path fill="#f24528" d="M 1319.347656 -172.769531 C 1319.347656 -137.28125 1319.347656 -103.984375 1319.347656 -70.6875 C 1319.347656 -18.429688 1319.199219 33.832031 1319.386719 86.089844 C 1319.429688 98.492188 1316.484375 109.476562 1306.679688 117.441406 C 1305.65625 118.335938 1304.578125 119.15625 1303.441406 119.902344 C 1302.304688 120.648438 1301.125 121.3125 1299.894531 121.894531 C 1298.667969 122.476562 1297.40625 122.96875 1296.109375 123.375 C 1294.8125 123.78125 1293.496094 124.097656 1292.152344 124.320312 C 1290.8125 124.546875 1289.464844 124.675781 1288.105469 124.714844 C 1286.746094 124.75 1285.394531 124.695312 1284.042969 124.542969 C 1282.691406 124.394531 1281.359375 124.148438 1280.042969 123.8125 C 1278.726562 123.476562 1277.4375 123.054688 1276.179688 122.539062 C 1274.746094 122.019531 1273.355469 121.40625 1272.003906 120.699219 C 1270.652344 119.988281 1269.355469 119.191406 1268.117188 118.304688 C 1266.875 117.421875 1265.699219 116.453125 1264.589844 115.40625 C 1263.480469 114.363281 1262.445312 113.246094 1261.488281 112.058594 C 1260.53125 110.871094 1259.660156 109.625 1258.875 108.316406 C 1258.085938 107.011719 1257.390625 105.65625 1256.789062 104.253906 C 1256.1875 102.851562 1255.683594 101.417969 1255.277344 99.949219 C 1254.875 98.476562 1254.570312 96.988281 1254.367188 95.476562 C 1253.730469 90.550781 1253.519531 85.609375 1253.734375 80.648438 C 1253.664062 -119.378906 1253.613281 -319.402344 1253.589844 -519.433594 C 1253.589844 -523.003906 1253.898438 -526.574219 1254.132812 -531.742188 C 1256.53125 -530.414062 1258.804688 -528.902344 1260.953125 -527.203125 C 1322.746094 -467.335938 1384.523438 -407.457031 1446.289062 -347.5625 C 1456.472656 -337.714844 1463.289062 -326.863281 1462.695312 -312.070312 C 1462.425781 -305.246094 1459.914062 -302.425781 1452.964844 -302.546875 C 1437.199219 -302.820312 1421.363281 -301.804688 1405.695312 -303.058594 C 1399.761719 -303.53125 1393.257812 -307.78125 1388.640625 -312.058594 C 1366.175781 -332.808594 1344.257812 -354.148438 1320.273438 -377.074219 L 1320.273438 -237.378906 C 1326.128906 -237.378906 1332.214844 -237.378906 1338.300781 -237.378906 C 1480.660156 -237.417969 1623.023438 -237.429688 1765.382812 -237.410156 C 1772.59375 -237.683594 1779.695312 -236.9375 1786.695312 -235.183594 C 1802.300781 -230.539062 1810.464844 -216.972656 1808.703125 -200.800781 C 1808.605469 -199.902344 1808.46875 -199.011719 1808.292969 -198.128906 C 1808.121094 -197.242188 1807.90625 -196.367188 1807.65625 -195.5 C 1807.40625 -194.636719 1807.117188 -193.78125 1806.792969 -192.941406 C 1806.46875 -192.097656 1806.105469 -191.273438 1805.710938 -190.464844 C 1805.3125 -189.652344 1804.882812 -188.863281 1804.414062 -188.089844 C 1803.949219 -187.320312 1803.449219 -186.566406 1802.917969 -185.839844 C 1802.390625 -185.109375 1801.828125 -184.40625 1801.234375 -183.726562 C 1800.640625 -183.046875 1800.019531 -182.394531 1799.371094 -181.765625 C 1798.722656 -181.140625 1798.046875 -180.542969 1797.347656 -179.976562 C 1796.644531 -179.410156 1795.921875 -178.875 1795.171875 -178.371094 C 1794.425781 -177.867188 1793.65625 -177.394531 1792.867188 -176.957031 C 1792.078125 -176.519531 1791.273438 -176.117188 1790.449219 -175.75 C 1789.625 -175.382812 1788.789062 -175.054688 1787.9375 -174.757812 C 1787.082031 -174.464844 1786.21875 -174.207031 1785.34375 -173.988281 C 1784.46875 -173.769531 1783.585938 -173.589844 1782.695312 -173.445312 C 1781.804688 -173.304688 1780.910156 -173.199219 1780.011719 -173.136719 C 1775.066406 -172.769531 1770.117188 -172.664062 1765.160156 -172.8125 C 1622.347656 -172.785156 1479.535156 -172.773438 1336.722656 -172.769531 Z M 1319.347656 -172.769531 " fill-opacity="1" fill-rule="nonzero"/></svg>