<svg xmlns="http://www.w3.org/2000/svg" xmlns:xlink="http://www.w3.org/1999/xlink" width="1920" zoomAndPan="magnify" viewBox="0 0 1440 809.999993" height="1080" preserveAspectRatio="xMidYMid meet" version="1.0"><metadata><ContainsAiGeneratedContent>Yes</ContainsAiGeneratedContent></metadata><defs><g/></defs><rect x="-144" width="1728" fill="#ffffff" y="-80.999999" height="971.999992" fill-opacity="1"/><rect x="-144" width="1728" fill="#ffffff" y="-80.999999" height="971.999992" fill-opacity="1"/><g fill="#950500" fill-opacity="1"><g transform="translate(257.942192, 407.073048)"><g><path d="M 89.96875 1.59375 C 74.894531 1.59375 61.039062 -1.941406 48.40625 -9.015625 C 35.769531 -16.097656 25.757812 -25.914062 18.375 -38.46875 C 11 -51.03125 7.3125 -65.226562 7.3125 -81.0625 C 7.3125 -96.882812 11 -111.078125 18.375 -123.640625 C 25.757812 -136.203125 35.769531 -145.984375 48.40625 -152.984375 C 61.039062 -159.984375 74.894531 -163.484375 89.96875 -163.484375 C 105.1875 -163.484375 119.070312 -159.984375 131.625 -152.984375 C 144.1875 -145.984375 154.117188 -136.203125 161.421875 -123.640625 C 168.734375 -111.078125 172.390625 -96.882812 172.390625 -81.0625 C 172.390625 -65.226562 168.734375 -51.03125 161.421875 -38.46875 C 154.117188 -25.914062 144.148438 -16.097656 131.515625 -9.015625 C 118.878906 -1.941406 105.03125 1.59375 89.96875 1.59375 Z M 89.96875 -39.953125 C 101.382812 -39.953125 110.398438 -43.679688 117.015625 -51.140625 C 123.640625 -58.597656 126.953125 -68.570312 126.953125 -81.0625 C 126.953125 -93.84375 123.640625 -103.925781 117.015625 -111.3125 C 110.398438 -118.695312 101.382812 -122.390625 89.96875 -122.390625 C 78.394531 -122.390625 69.332031 -118.695312 62.78125 -111.3125 C 56.238281 -103.925781 52.96875 -93.84375 52.96875 -81.0625 C 52.96875 -68.425781 56.238281 -58.414062 62.78125 -51.03125 C 69.332031 -43.644531 78.394531 -39.953125 89.96875 -39.953125 Z M 89.96875 -39.953125 "/></g></g></g><g fill="#950500" fill-opacity="1"><g transform="translate(419.365719, 407.073048)"><g><path d="M 143.84375 -128.09375 L 143.84375 0 L 98.859375 0 L 98.859375 -18.265625 C 95.054688 -12.484375 89.804688 -7.800781 83.109375 -4.21875 C 76.410156 -0.644531 68.722656 1.140625 60.046875 1.140625 C 45.128906 1.140625 33.367188 -3.765625 24.765625 -13.578125 C 16.171875 -23.398438 11.875 -36.757812 11.875 -53.65625 L 11.875 -128.09375 L 56.390625 -128.09375 L 56.390625 -59.359375 C 56.390625 -52.054688 58.332031 -46.3125 62.21875 -42.125 C 66.101562 -37.9375 71.238281 -35.84375 77.625 -35.84375 C 84.175781 -35.84375 89.351562 -37.9375 93.15625 -42.125 C 96.957031 -46.3125 98.859375 -52.054688 98.859375 -59.359375 L 98.859375 -128.09375 Z M 143.84375 -128.09375 "/></g></g></g><g fill="#950500" fill-opacity="1"><g transform="translate(557.728719, 407.073048)"><g><path d="M 57.53125 -105.484375 C 62.5625 -112.796875 68.648438 -118.582031 75.796875 -122.84375 C 82.953125 -127.101562 90.640625 -129.234375 98.859375 -129.234375 L 98.859375 -81.515625 L 86.3125 -81.515625 C 76.5625 -81.515625 69.328125 -79.609375 64.609375 -75.796875 C 59.890625 -71.992188 57.53125 -65.375 57.53125 -55.9375 L 57.53125 0 L 12.78125 0 L 12.78125 -128.09375 L 57.53125 -128.09375 Z M 57.53125 -105.484375 "/></g></g></g><g fill="#151416" fill-opacity="1"><g transform="translate(257.942192, 573.573039)"><g><path d="M 57.53125 -125.125 L 57.53125 -98.859375 L 108.90625 -98.859375 L 108.90625 -64.84375 L 57.53125 -64.84375 L 57.53125 -35.84375 L 115.765625 -35.84375 L 115.765625 0 L 12.78125 0 L 12.78125 -160.96875 L 115.765625 -160.96875 L 115.765625 -125.125 Z M 57.53125 -125.125 "/></g></g></g><g fill="#151416" fill-opacity="1"><g transform="translate(364.796736, 573.573039)"><g><path d="M 92.703125 0 L 69.640625 -32.1875 L 51.375 0 L 2.28125 0 L 44.984375 -66.4375 L 0.453125 -128.09375 L 50.6875 -128.09375 L 73.75 -95.890625 L 92.25 -128.09375 L 141.328125 -128.09375 L 97.71875 -62.796875 L 142.9375 0 Z M 92.703125 0 "/></g></g></g><g fill="#151416" fill-opacity="1"><g transform="translate(489.917011, 573.573039)"><g><path d="M 57.53125 -110.28125 C 61.039062 -116.21875 65.988281 -120.9375 72.375 -124.4375 C 78.769531 -127.9375 86.304688 -129.6875 94.984375 -129.6875 C 105.179688 -129.6875 114.425781 -127.019531 122.71875 -121.6875 C 131.019531 -116.363281 137.566406 -108.753906 142.359375 -98.859375 C 147.160156 -88.972656 149.5625 -77.40625 149.5625 -64.15625 C 149.5625 -50.914062 147.160156 -39.3125 142.359375 -29.34375 C 137.566406 -19.375 131.019531 -11.722656 122.71875 -6.390625 C 114.425781 -1.066406 105.179688 1.59375 94.984375 1.59375 C 86.304688 1.59375 78.804688 -0.15625 72.484375 -3.65625 C 66.171875 -7.15625 61.1875 -11.875 57.53125 -17.8125 L 57.53125 61.1875 L 12.78125 61.1875 L 12.78125 -128.09375 L 57.53125 -128.09375 Z M 104.125 -64.15625 C 104.125 -72.53125 101.875 -79.035156 97.375 -83.671875 C 92.882812 -88.316406 87.367188 -90.640625 80.828125 -90.640625 C 74.285156 -90.640625 68.765625 -88.28125 64.265625 -83.5625 C 59.773438 -78.84375 57.53125 -72.375 57.53125 -64.15625 C 57.53125 -55.789062 59.773438 -49.25 64.265625 -44.53125 C 68.765625 -39.8125 74.285156 -37.453125 80.828125 -37.453125 C 87.367188 -37.453125 92.882812 -39.847656 97.375 -44.640625 C 101.875 -49.429688 104.125 -55.9375 104.125 -64.15625 Z M 104.125 -64.15625 "/></g></g></g><g fill="#151416" fill-opacity="1"><g transform="translate(626.910062, 573.573039)"><g><path d="M 135.171875 -65.53125 C 135.171875 -62.03125 134.941406 -58.53125 134.484375 -55.03125 L 49.78125 -55.03125 C 50.226562 -48.03125 52.164062 -42.816406 55.59375 -39.390625 C 59.019531 -35.960938 63.398438 -34.25 68.734375 -34.25 C 76.191406 -34.25 81.515625 -37.597656 84.703125 -44.296875 L 132.4375 -44.296875 C 130.457031 -35.460938 126.613281 -27.582031 120.90625 -20.65625 C 115.195312 -13.738281 108.003906 -8.300781 99.328125 -4.34375 C 90.648438 -0.382812 81.054688 1.59375 70.546875 1.59375 C 57.921875 1.59375 46.695312 -1.066406 36.875 -6.390625 C 27.050781 -11.722656 19.363281 -19.332031 13.8125 -29.21875 C 8.257812 -39.113281 5.484375 -50.757812 5.484375 -64.15625 C 5.484375 -77.550781 8.222656 -89.15625 13.703125 -98.96875 C 19.179688 -108.789062 26.828125 -116.363281 36.640625 -121.6875 C 46.460938 -127.019531 57.765625 -129.6875 70.546875 -129.6875 C 83.179688 -129.6875 94.367188 -127.097656 104.109375 -121.921875 C 113.859375 -116.753906 121.472656 -109.335938 126.953125 -99.671875 C 132.429688 -90.003906 135.171875 -78.625 135.171875 -65.53125 Z M 89.5 -76.71875 C 89.5 -82.195312 87.671875 -86.492188 84.015625 -89.609375 C 80.367188 -92.734375 75.804688 -94.296875 70.328125 -94.296875 C 64.847656 -94.296875 60.359375 -92.8125 56.859375 -89.84375 C 53.359375 -86.875 51.070312 -82.5 50 -76.71875 Z M 89.5 -76.71875 "/></g></g></g><g fill="#151416" fill-opacity="1"><g transform="translate(749.290496, 573.573039)"><g><path d="M 57.53125 -105.484375 C 62.5625 -112.796875 68.648438 -118.582031 75.796875 -122.84375 C 82.953125 -127.101562 90.640625 -129.234375 98.859375 -129.234375 L 98.859375 -81.515625 L 86.3125 -81.515625 C 76.5625 -81.515625 69.328125 -79.609375 64.609375 -75.796875 C 59.890625 -71.992188 57.53125 -65.375 57.53125 -55.9375 L 57.53125 0 L 12.78125 0 L 12.78125 -128.09375 L 57.53125 -128.09375 Z M 57.53125 -105.484375 "/></g></g></g><g fill="#151416" fill-opacity="1"><g transform="translate(833.084498, 573.573039)"><g><path d="M 88.359375 -38.125 L 88.359375 0 L 68.953125 0 C 36.222656 0 19.859375 -16.210938 19.859375 -48.640625 L 19.859375 -90.875 L 4.109375 -90.875 L 4.109375 -128.09375 L 19.859375 -128.09375 L 19.859375 -159.140625 L 64.84375 -159.140625 L 64.84375 -128.09375 L 88.140625 -128.09375 L 88.140625 -90.875 L 64.84375 -90.875 L 64.84375 -47.953125 C 64.84375 -44.453125 65.640625 -41.9375 67.234375 -40.40625 C 68.835938 -38.882812 71.539062 -38.125 75.34375 -38.125 Z M 88.359375 -38.125 "/></g></g></g><g fill="#151416" fill-opacity="1"><g transform="translate(910.94213, 573.573039)"><g><path d="M 35.390625 -139.96875 C 27.472656 -139.96875 21.117188 -142.132812 16.328125 -146.46875 C 11.535156 -150.8125 9.140625 -156.253906 9.140625 -162.796875 C 9.140625 -169.492188 11.535156 -175.050781 16.328125 -179.46875 C 21.117188 -183.882812 27.472656 -186.09375 35.390625 -186.09375 C 43.148438 -186.09375 49.425781 -183.882812 54.21875 -179.46875 C 59.019531 -175.050781 61.421875 -169.492188 61.421875 -162.796875 C 61.421875 -156.253906 59.019531 -150.8125 54.21875 -146.46875 C 49.425781 -142.132812 43.148438 -139.96875 35.390625 -139.96875 Z M 57.53125 -128.09375 L 57.53125 0 L 12.78125 0 L 12.78125 -128.09375 Z M 57.53125 -128.09375 "/></g></g></g><g fill="#151416" fill-opacity="1"><g transform="translate(962.999332, 573.573039)"><g><path d="M 67.359375 1.59375 C 55.785156 1.59375 45.46875 -0.34375 36.40625 -4.21875 C 27.351562 -8.101562 20.203125 -13.429688 14.953125 -20.203125 C 9.703125 -26.984375 6.773438 -34.632812 6.171875 -43.15625 L 49.546875 -43.15625 C 50.148438 -39.039062 52.050781 -35.84375 55.25 -33.5625 C 58.445312 -31.28125 62.40625 -30.140625 67.125 -30.140625 C 70.78125 -30.140625 73.671875 -30.898438 75.796875 -32.421875 C 77.929688 -33.941406 79 -35.921875 79 -38.359375 C 79 -41.554688 77.25 -43.914062 73.75 -45.4375 C 70.25 -46.957031 64.460938 -48.628906 56.390625 -50.453125 C 47.265625 -52.285156 39.65625 -54.34375 33.5625 -56.625 C 27.476562 -58.90625 22.1875 -62.632812 17.6875 -67.8125 C 13.195312 -72.988281 10.953125 -79.988281 10.953125 -88.8125 C 10.953125 -96.425781 13.007812 -103.316406 17.125 -109.484375 C 21.238281 -115.648438 27.289062 -120.554688 35.28125 -124.203125 C 43.269531 -127.859375 52.894531 -129.6875 64.15625 -129.6875 C 80.90625 -129.6875 94.070312 -125.578125 103.65625 -117.359375 C 113.25 -109.140625 118.804688 -98.332031 120.328125 -84.9375 L 79.921875 -84.9375 C 79.148438 -89.050781 77.359375 -92.207031 74.546875 -94.40625 C 71.734375 -96.613281 67.96875 -97.71875 63.25 -97.71875 C 59.59375 -97.71875 56.8125 -97.03125 54.90625 -95.65625 C 53.007812 -94.289062 52.0625 -92.394531 52.0625 -89.96875 C 52.0625 -86.914062 53.8125 -84.585938 57.3125 -82.984375 C 60.8125 -81.390625 66.441406 -79.757812 74.203125 -78.09375 C 83.492188 -76.113281 91.21875 -73.90625 97.375 -71.46875 C 103.539062 -69.03125 108.945312 -65.109375 113.59375 -59.703125 C 118.238281 -54.304688 120.5625 -46.960938 120.5625 -37.671875 C 120.5625 -30.210938 118.390625 -23.515625 114.046875 -17.578125 C 109.710938 -11.640625 103.546875 -6.957031 95.546875 -3.53125 C 87.554688 -0.113281 78.160156 1.59375 67.359375 1.59375 Z M 67.359375 1.59375 "/></g></g></g><g fill="#151416" fill-opacity="1"><g transform="translate(1074.420332, 573.573039)"><g><path d="M 135.171875 -65.53125 C 135.171875 -62.03125 134.941406 -58.53125 134.484375 -55.03125 L 49.78125 -55.03125 C 50.226562 -48.03125 52.164062 -42.816406 55.59375 -39.390625 C 59.019531 -35.960938 63.398438 -34.25 68.734375 -34.25 C 76.191406 -34.25 81.515625 -37.597656 84.703125 -44.296875 L 132.4375 -44.296875 C 130.457031 -35.460938 126.613281 -27.582031 120.90625 -20.65625 C 115.195312 -13.738281 108.003906 -8.300781 99.328125 -4.34375 C 90.648438 -0.382812 81.054688 1.59375 70.546875 1.59375 C 57.921875 1.59375 46.695312 -1.066406 36.875 -6.390625 C 27.050781 -11.722656 19.363281 -19.332031 13.8125 -29.21875 C 8.257812 -39.113281 5.484375 -50.757812 5.484375 -64.15625 C 5.484375 -77.550781 8.222656 -89.15625 13.703125 -98.96875 C 19.179688 -108.789062 26.828125 -116.363281 36.640625 -121.6875 C 46.460938 -127.019531 57.765625 -129.6875 70.546875 -129.6875 C 83.179688 -129.6875 94.367188 -127.097656 104.109375 -121.921875 C 113.859375 -116.753906 121.472656 -109.335938 126.953125 -99.671875 C 132.429688 -90.003906 135.171875 -78.625 135.171875 -65.53125 Z M 89.5 -76.71875 C 89.5 -82.195312 87.671875 -86.492188 84.015625 -89.609375 C 80.367188 -92.734375 75.804688 -94.296875 70.328125 -94.296875 C 64.847656 -94.296875 60.359375 -92.8125 56.859375 -89.84375 C 53.359375 -86.875 51.070312 -82.5 50 -76.71875 Z M 89.5 -76.71875 "/></g></g></g><path fill="#f24528" d="M 1527.71875 176.613281 C 1563.207031 176.613281 1596.503906 176.613281 1629.800781 176.613281 C 1682.058594 176.613281 1734.320312 176.761719 1786.578125 176.574219 C 1798.980469 176.53125 1809.964844 179.476562 1817.929688 189.28125 C 1818.824219 190.304688 1819.644531 191.382812 1820.390625 192.519531 C 1821.136719 193.65625 1821.800781 194.835938 1822.382812 196.066406 C 1822.964844 197.292969 1823.457031 198.554688 1823.863281 199.851562 C 1824.269531 201.148438 1824.585938 202.46875 1824.808594 203.808594 C 1825.035156 205.148438 1825.164062 206.496094 1825.203125 207.855469 C 1825.238281 209.214844 1825.183594 210.566406 1825.03125 211.917969 C 1824.882812 213.269531 1824.636719 214.601562 1824.300781 215.917969 C 1823.964844 217.234375 1823.542969 218.523438 1823.027344 219.78125 C 1822.507812 221.214844 1821.894531 222.609375 1821.1875 223.957031 C 1820.476562 225.308594 1819.679688 226.605469 1818.792969 227.84375 C 1817.910156 229.085938 1816.941406 230.261719 1815.894531 231.371094 C 1814.851562 232.480469 1813.734375 233.515625 1812.546875 234.472656 C 1811.359375 235.429688 1810.113281 236.300781 1808.804688 237.085938 C 1807.5 237.875 1806.144531 238.570312 1804.742188 239.171875 C 1803.34375 239.773438 1801.90625 240.277344 1800.4375 240.683594 C 1798.964844 241.085938 1797.476562 241.390625 1795.964844 241.59375 C 1791.039062 242.230469 1786.097656 242.441406 1781.136719 242.226562 C 1581.109375 242.296875 1381.085938 242.347656 1181.054688 242.371094 C 1177.484375 242.371094 1173.914062 242.0625 1168.746094 241.828125 C 1170.074219 239.433594 1171.585938 237.15625 1173.285156 235.007812 C 1233.152344 173.214844 1293.03125 111.4375 1352.925781 49.671875 C 1362.773438 39.488281 1373.625 32.671875 1388.417969 33.265625 C 1395.246094 33.535156 1398.0625 36.046875 1397.941406 43 C 1397.667969 58.761719 1398.683594 74.597656 1397.429688 90.265625 C 1396.957031 96.199219 1392.707031 102.703125 1388.429688 107.320312 C 1367.679688 129.785156 1346.339844 151.703125 1323.414062 175.6875 L 1463.109375 175.6875 C 1463.109375 169.832031 1463.109375 163.746094 1463.109375 157.660156 C 1463.070312 15.300781 1463.058594 -127.0625 1463.078125 -269.421875 C 1462.804688 -276.632812 1463.550781 -283.734375 1465.304688 -290.734375 C 1469.949219 -306.339844 1483.515625 -314.503906 1499.6875 -312.742188 C 1500.585938 -312.644531 1501.476562 -312.507812 1502.359375 -312.332031 C 1503.246094 -312.160156 1504.121094 -311.945312 1504.988281 -311.695312 C 1505.851562 -311.445312 1506.707031 -311.15625 1507.546875 -310.832031 C 1508.390625 -310.507812 1509.214844 -310.144531 1510.023438 -309.75 C 1510.835938 -309.351562 1511.625 -308.917969 1512.398438 -308.453125 C 1513.167969 -307.988281 1513.921875 -307.488281 1514.648438 -306.957031 C 1515.378906 -306.425781 1516.082031 -305.867188 1516.761719 -305.273438 C 1517.441406 -304.679688 1518.09375 -304.058594 1518.722656 -303.410156 C 1519.347656 -302.761719 1519.945312 -302.085938 1520.511719 -301.386719 C 1521.078125 -300.683594 1521.613281 -299.960938 1522.117188 -299.210938 C 1522.621094 -298.464844 1523.09375 -297.695312 1523.53125 -296.90625 C 1523.96875 -296.117188 1524.371094 -295.3125 1524.738281 -294.488281 C 1525.105469 -293.664062 1525.433594 -292.828125 1525.730469 -291.972656 C 1526.023438 -291.121094 1526.28125 -290.257812 1526.5 -289.382812 C 1526.71875 -288.507812 1526.898438 -287.625 1527.042969 -286.734375 C 1527.183594 -285.84375 1527.289062 -284.949219 1527.351562 -284.050781 C 1527.71875 -279.105469 1527.824219 -274.15625 1527.675781 -269.199219 C 1527.703125 -126.386719 1527.714844 16.425781 1527.71875 159.238281 Z M 1527.71875 176.613281 " fill-opacity="1" fill-rule="nonzero"/><path fill="#151416" d="M 1399.644531 -275.933594 C 1401.390625 -261.296875 1393.425781 -248.625 1381.746094 -236.730469 C 1266.390625 -119.523438 1151.191406 -2.167969 1036.148438 115.332031 C 1007.761719 144.285156 979.625 173.480469 951.296875 202.492188 C 941.367188 212.660156 929.542969 216.894531 915.636719 212.109375 C 914.179688 211.648438 912.765625 211.089844 911.386719 210.433594 C 910.011719 209.773438 908.6875 209.019531 907.414062 208.171875 C 906.144531 207.324219 904.941406 206.394531 903.800781 205.375 C 902.664062 204.359375 901.601562 203.265625 900.621094 202.097656 C 899.636719 200.929688 898.738281 199.699219 897.929688 198.402344 C 897.121094 197.109375 896.410156 195.761719 895.789062 194.367188 C 895.171875 192.96875 894.65625 191.535156 894.242188 190.066406 C 893.828125 188.597656 893.515625 187.105469 893.3125 185.59375 C 890.882812 171.921875 898.828125 162.402344 907.375 153.542969 C 939.285156 120.480469 971.296875 87.511719 1003.398438 54.632812 C 1118.5 -63.425781 1233.585938 -181.515625 1348.652344 -299.632812 C 1358.636719 -309.90625 1369.042969 -316.421875 1383.222656 -310.898438 C 1397.886719 -305.199219 1400.160156 -292.355469 1399.644531 -275.933594 Z M 1399.644531 -275.933594 " fill-opacity="1" fill-rule="nonzero"/><path fill="#950500" d="M 1397.882812 -106.222656 C 1403.945312 -86.328125 1391.710938 -70.910156 1376.390625 -55.339844 C 1260.445312 62.507812 1144.761719 180.601562 1029.335938 298.953125 C 1015.742188 312.828125 1002.027344 316.152344 987.996094 309.585938 C 975.59375 303.789062 966.988281 291.398438 970.214844 277.867188 C 971.589844 272.730469 973.585938 267.847656 976.203125 263.222656 C 978.820312 258.59375 981.972656 254.367188 985.664062 250.539062 C 1032.980469 201.0625 1080.96875 152.226562 1128.847656 103.292969 C 1203.828125 26.664062 1278.683594 -50.078125 1354.226562 -126.148438 C 1362.269531 -134.246094 1374.046875 -139.339844 1384.957031 -143.648438 C 1392.6875 -146.699219 1398.835938 -143.023438 1398.003906 -132.664062 C 1397.390625 -125.054688 1397.882812 -117.355469 1397.882812 -106.222656 Z M 1397.882812 -106.222656 " fill-opacity="1" fill-rule="nonzero"/><path fill="#f24528" d="M 117.976562 996.042969 C 117.976562 960.554688 117.976562 927.257812 117.976562 893.960938 C 117.976562 841.703125 118.125 789.441406 117.941406 737.183594 C 117.894531 724.78125 120.839844 713.796875 130.648438 705.832031 C 131.667969 704.9375 132.75 704.117188 133.882812 703.371094 C 135.019531 702.625 136.203125 701.960938 137.429688 701.378906 C 138.660156 700.796875 139.921875 700.304688 141.21875 699.898438 C 142.515625 699.492188 143.832031 699.175781 145.171875 698.949219 C 146.511719 698.726562 147.863281 698.597656 149.21875 698.558594 C 150.578125 698.523438 151.933594 698.578125 153.285156 698.730469 C 154.632812 698.878906 155.96875 699.125 157.285156 699.460938 C 158.601562 699.796875 159.886719 700.21875 161.148438 700.734375 C 162.582031 701.253906 163.972656 701.867188 165.324219 702.574219 C 166.671875 703.285156 167.96875 704.082031 169.210938 704.96875 C 170.453125 705.851562 171.628906 706.820312 172.738281 707.867188 C 173.847656 708.910156 174.878906 710.027344 175.835938 711.214844 C 176.792969 712.402344 177.667969 713.648438 178.453125 714.957031 C 179.238281 716.261719 179.933594 717.617188 180.535156 719.019531 C 181.136719 720.417969 181.640625 721.855469 182.046875 723.324219 C 182.453125 724.796875 182.757812 726.285156 182.960938 727.796875 C 183.597656 732.722656 183.808594 737.664062 183.59375 742.625 C 183.664062 942.652344 183.710938 1142.675781 183.734375 1342.703125 C 183.734375 1346.277344 183.425781 1349.847656 183.195312 1355.015625 C 180.796875 1353.6875 178.523438 1352.175781 176.375 1350.476562 C 114.582031 1290.609375 52.800781 1230.730469 -8.960938 1170.835938 C -19.144531 1160.988281 -25.960938 1150.136719 -25.371094 1135.34375 C -25.097656 1128.515625 -22.585938 1125.699219 -15.636719 1125.820312 C 0.125 1126.09375 15.964844 1125.078125 31.632812 1126.332031 C 37.566406 1126.804688 44.066406 1131.054688 48.6875 1135.332031 C 71.152344 1156.082031 93.070312 1177.421875 117.050781 1200.347656 L 117.050781 1060.652344 C 111.199219 1060.652344 105.113281 1060.652344 99.027344 1060.652344 C -43.335938 1060.691406 -185.695312 1060.703125 -328.058594 1060.683594 C -335.265625 1060.957031 -342.371094 1060.210938 -349.367188 1058.457031 C -364.972656 1053.8125 -373.136719 1040.246094 -371.375 1024.074219 C -371.277344 1023.175781 -371.140625 1022.285156 -370.96875 1021.402344 C -370.792969 1020.515625 -370.582031 1019.640625 -370.328125 1018.773438 C -370.078125 1017.910156 -369.789062 1017.054688 -369.464844 1016.214844 C -369.140625 1015.371094 -368.78125 1014.546875 -368.382812 1013.738281 C -367.984375 1012.925781 -367.554688 1012.136719 -367.089844 1011.363281 C -366.621094 1010.59375 -366.125 1009.839844 -365.59375 1009.113281 C -365.0625 1008.382812 -364.5 1007.679688 -363.90625 1007 C -363.316406 1006.320312 -362.695312 1005.667969 -362.046875 1005.039062 C -361.394531 1004.414062 -360.722656 1003.816406 -360.019531 1003.25 C -359.320312 1002.683594 -358.59375 1002.148438 -357.847656 1001.644531 C -357.097656 1001.140625 -356.332031 1000.667969 -355.542969 1000.230469 C -354.753906 999.792969 -353.945312 999.390625 -353.125 999.023438 C -352.300781 998.65625 -351.460938 998.324219 -350.609375 998.03125 C -349.757812 997.738281 -348.894531 997.480469 -348.019531 997.261719 C -347.144531 997.042969 -346.261719 996.863281 -345.371094 996.71875 C -344.480469 996.578125 -343.585938 996.472656 -342.683594 996.410156 C -337.738281 996.042969 -332.789062 995.9375 -327.832031 996.085938 C -185.019531 996.058594 -42.207031 996.046875 100.605469 996.042969 Z M 117.976562 996.042969 " fill-opacity="1" fill-rule="nonzero"/></svg>